<svg width="64" height="64" viewBox="0 0 64 64" fill="none" xmlns="http://www.w3.org/2000/svg">
<path d="M32 6C18.5425 6 8 12.15 8 20V44C8 51.85 18.5425 58 32 58C45.4575 58 56 51.85 56 44V20C56 12.15 45.4575 6 32 6ZM52 32C52 34.405 50.03 36.8575 46.5975 38.73C42.7325 40.8375 37.5475 42 32 42C26.4525 42 21.2675 40.8375 17.4025 38.73C13.97 36.8575 12 34.405 12 32V27.84C16.265 31.59 23.5575 34 32 34C40.4425 34 47.735 31.58 52 27.84V32ZM17.4025 13.27C21.2675 11.1625 26.4525 10 32 10C37.5475 10 42.7325 11.1625 46.5975 13.27C50.03 15.1425 52 17.595 52 20C52 22.405 50.03 24.8575 46.5975 26.73C42.7325 28.8375 37.5475 30 32 30C26.4525 30 21.2675 28.8375 17.4025 26.73C13.97 24.8575 12 22.405 12 20C12 17.595 13.97 15.1425 17.4025 13.27ZM46.5975 50.73C42.7325 52.8375 37.5475 54 32 54C26.4525 54 21.2675 52.8375 17.4025 50.73C13.97 48.8575 12 46.405 12 44V39.84C16.265 43.59 23.5575 46 32 46C40.4425 46 47.735 43.58 52 39.84V44C52 46.405 50.03 48.8575 46.5975 50.73Z" fill="black"/>
</svg>
